<svg width="889" height="800" viewBox="0 0 889 800" fill="none" xmlns="http://www.w3.org/2000/svg">
<path d="M888.473 254.4C888.576 253.793 888.636 253.2 888.665 252.578C888.695 251.852 888.68 251.156 888.621 250.43C888.562 249.807 888.473 249.215 888.325 248.607C888.162 247.896 887.939 247.215 887.673 246.533C887.539 246.178 887.51 245.807 887.347 245.467C887.228 245.215 887.021 245.022 886.888 244.77C886.754 244.519 886.695 244.252 886.547 244L738.399 6.96296C737.717 5.88148 736.917 4.9037 736.013 4.04444L735.969 4.01481C734.695 2.81481 733.184 1.95556 731.569 1.27407C731.362 1.18518 731.228 1.0074 731.006 0.918516C730.843 0.859256 730.665 0.888888 730.502 0.844443C729.006 0.34074 727.465 0 725.85 0H162.888C161.288 0 159.762 0.340741 158.295 0.82963C158.132 0.874074 157.969 0.844443 157.821 0.903702C157.599 0.977776 157.465 1.15555 157.258 1.24444C155.717 1.88148 154.265 2.71111 153.006 3.83703C152.932 3.91111 152.828 3.95555 152.754 4.01481C151.836 4.87407 151.021 5.86666 150.339 6.94815L2.19126 243.985C2.04311 244.222 1.98385 244.504 1.85052 244.756C1.71718 245.007 1.50978 245.2 1.39126 245.452C1.2283 245.793 1.19867 246.163 1.05052 246.519C0.783851 247.2 0.561629 247.881 0.398666 248.593C0.265333 249.2 0.161629 249.807 0.10237 250.43C-0.00133416 251.156 -0.016149 251.867 0.0134807 252.578C0.0431103 253.2 0.10237 253.793 0.206073 254.4C0.324592 255.111 0.517184 255.807 0.754221 256.504C0.946814 257.081 1.15422 257.644 1.42089 258.207C1.55422 258.474 1.59867 258.77 1.74681 259.037C1.98385 259.467 2.33941 259.793 2.60607 260.193C2.81348 260.504 2.932 260.844 3.18385 261.141L432.651 794.267C432.68 794.311 432.71 794.341 432.739 794.37L432.813 794.474C432.858 794.533 432.932 794.548 432.976 794.607C434.191 796.074 435.702 797.185 437.347 798.074C437.791 798.311 438.206 798.518 438.665 798.711C440.458 799.467 442.354 800 444.339 800C446.028 800 447.732 799.704 449.421 799.096C449.673 799.007 449.836 798.8 450.088 798.696C450.843 798.385 451.436 797.881 452.117 797.452C453.243 796.741 454.295 796 455.169 795.037C455.376 794.815 455.688 794.711 455.88 794.474L885.51 261.141C885.747 260.844 885.865 260.489 886.088 260.193C886.369 259.793 886.71 259.467 886.947 259.037C887.095 258.77 887.139 258.474 887.273 258.207C887.539 257.644 887.747 257.096 887.939 256.504C888.147 255.807 888.354 255.126 888.473 254.4ZM475.48 29.6444H704.502L632.502 222.904L475.48 29.6444ZM605.806 237.052H282.888L444.339 38.3407L605.806 237.052ZM255.139 224.193L184.043 29.6444H413.213L255.139 224.193ZM616.191 266.681L441.747 734.918L270.651 266.681H616.191ZM729.199 48.2074L847.228 237.067H658.843L729.199 48.2074ZM159.347 48.4L228.28 237.052H41.4505L159.347 48.4ZM239.11 266.681L399.688 706.148L45.6727 266.681H239.11ZM479.85 717.496L647.806 266.681H843.006L479.85 717.496Z" fill="#EF1F72"/>
</svg>
