<svg width="800" height="800" viewBox="0 0 828 800" fill="none" xmlns="http://www.w3.org/2000/svg">
<path d="M519.558 615.007C540.979 593.917 529.42 545.476 494.428 489.517C507.145 487.531 519.035 484.497 528.027 479.848C560.387 463.145 582.234 432.704 598.773 401.214C616.552 367.434 628.483 330.304 651.682 299.545C655.6 294.344 659.517 289.683 663.42 285.296C713.476 291.296 753.434 302.055 753.434 302.055L768.704 263.255C749.431 256.339 729.671 250.866 709.586 246.883C721.89 239.89 729.917 237.71 729.917 237.71L715.448 198.593C692.248 208.4 673.42 222.869 657.655 240.193C598.731 236.896 539.393 248.634 492.579 284.938C457.379 312.248 433.6 350.11 411.228 387.987C391.405 368.533 370.295 350.438 348.042 333.82C352.262 326.883 356.786 320.648 361.656 315.834C391.076 286.869 429.889 268.344 455.352 235.2C508.869 165.6 469.724 56.4966 425.696 0C417.807 7.60002 404.759 18.6758 394.938 27.4207C441.738 75.3514 474.469 159.269 437.794 221.972C417.297 257.02 379.421 279.006 352.938 309.117C348.359 314.345 344.262 320.966 340.551 328.276C271.296 278.607 207.738 258.621 182.552 283.421C180.051 285.979 177.991 288.934 176.456 292.166L176.358 292.069L175.683 294.042C174.745 296.18 173.889 298.4 173.31 300.827L0 800L505.683 623.2L505.544 623.062C510.98 621.31 515.766 618.731 519.558 615.007ZM100.593 735.614L58.3862 715.945L86.8687 633.876L217.504 694.731L100.593 735.614ZM334.4 653.862L115.379 551.807L143.862 469.752L307.531 551.903C209.834 488.317 172.344 387.669 172.344 387.669L182.083 359.628C199.393 403.421 237.476 457.958 289.807 509.435C342.579 561.379 398.51 599.006 443.214 615.82L334.4 653.862ZM418.524 395.38C441.393 362.593 464.966 329.504 497.738 305.959C528.938 283.531 579.586 279.435 627.6 282.124C611.379 310.456 599.393 341.89 588.635 372.083C575.627 408.634 558.193 446.538 524.952 468.951C515.987 474.993 503.42 479.407 490 482.676C471.559 454.414 447.365 424.538 418.524 395.38Z" fill="#EF1F72"/>
<path d="M290.111 262.069C303.931 262.069 262.496 220.69 269.421 184.4C295.959 182.359 356.62 194.317 321.31 145.82C361.255 152.855 381.945 123.035 344.234 94.7722C356.786 95.655 376.29 71.9864 362.289 68.993C317.435 59.4901 299.876 83.7518 328.345 118.745C298.414 113.172 274.014 127.09 296.497 158.345C210.069 147.573 259.242 262.069 290.111 262.069ZM586.828 225.297C599.779 219.449 577.807 180.814 570.662 170.938C625.324 165.09 623.255 148.8 588.979 113.903C682.166 117.034 591.862 64.069 604.524 43.1035C615.489 24.9243 649.131 43.9863 646.013 33.8622C635.503 0.000108719 535.807 22.8967 598.896 86.1238C543.834 87.1999 538.552 105.2 579.586 142.51C508.111 143.297 566.427 234.483 586.828 225.297ZM823.407 361.725C801.586 367.835 798.22 365.545 801.131 387.269C750.731 364.069 697.407 331.807 729.765 417.283C672.524 383.2 675.379 413.048 664.676 462.166C650.745 451.31 630.952 422.704 630.952 422.704L609.986 440.511C609.986 440.511 648.4 494.69 667.366 491.614C684.042 488.924 693.117 457.407 694.042 429.627C747.145 452.041 772.566 455.035 748.276 389.49C790.731 413.338 842.786 434.372 823.407 361.725ZM55.8483 116.372L94.8551 155.393L55.8483 194.4L16.8276 155.393L55.8483 116.372ZM149.297 278.593L110.262 317.6L71.2413 278.565L110.276 239.545L149.297 278.593ZM209.931 55.1725L248.938 94.179L209.917 133.214L170.91 94.179L209.931 55.1725ZM634.635 599.779L595.6 560.758L634.607 521.725L673.641 560.745L634.635 599.779ZM547.656 733.6L508.648 694.593L547.656 655.573L586.676 694.593L547.656 733.6ZM718.8 764.413L679.766 725.393L718.759 686.359L757.793 725.38L718.8 764.413ZM757.807 586.704L718.8 547.683L757.807 508.676L796.814 547.683L757.807 586.704ZM692.69 96.5518L731.697 135.558L692.676 174.58L653.669 135.558L692.69 96.5518Z" fill="#EF1F72"/>
</svg>
