<svg width="800" height="800" viewBox="0 0 854 800" fill="none" xmlns="http://www.w3.org/2000/svg">
<path d="M266.667 58.6667L853.333 0V586.667C853.333 629.101 836.476 669.798 806.47 699.804C776.465 729.81 735.768 746.667 693.333 746.667C650.899 746.667 610.202 729.81 580.196 699.804C550.19 669.798 533.333 629.101 533.333 586.667C533.333 544.232 550.19 503.535 580.196 473.53C610.202 443.524 650.899 426.667 693.333 426.667C734.4 426.667 771.733 442.133 800 467.2V215.467L320 268.8V640C320 682.435 303.143 723.131 273.137 753.137C243.131 783.143 202.435 800 160 800C117.565 800 76.8687 783.143 46.8629 753.137C16.8571 723.131 0 682.435 0 640C0 597.565 16.8571 556.869 46.8629 526.863C76.8687 496.857 117.565 480 160 480C201.067 480 238.4 495.467 266.667 520.533V58.6667ZM320 106.667V214.933L800 162.133V58.1333L320 106.667ZM266.667 640C266.667 611.71 255.429 584.579 235.425 564.575C215.421 544.571 188.29 533.333 160 533.333C131.71 533.333 104.579 544.571 84.5753 564.575C64.5714 584.579 53.3333 611.71 53.3333 640C53.3333 668.29 64.5714 695.421 84.5753 715.425C104.579 735.429 131.71 746.667 160 746.667C188.29 746.667 215.421 735.429 235.425 715.425C255.429 695.421 266.667 668.29 266.667 640ZM800 586.667C800 558.377 788.762 531.246 768.758 511.242C748.754 491.238 721.623 480 693.333 480C665.044 480 637.913 491.238 617.909 511.242C597.905 531.246 586.667 558.377 586.667 586.667C586.667 614.956 597.905 642.087 617.909 662.091C637.913 682.095 665.044 693.333 693.333 693.333C721.623 693.333 748.754 682.095 768.758 662.091C788.762 642.087 800 614.956 800 586.667Z" fill="#EF1F72"/>
</svg>
