<svg width="24" height="26" viewBox="0 0 24 26" fill="none" xmlns="http://www.w3.org/2000/svg">
<path d="M21.1014 0H2.63768C1.18696 0 0 1.3 0 2.88889V23.1111C0 24.7014 1.18696 26 2.63768 26H11.8696V15.8889H9.23188V12.3139H11.8696V9.35278C11.8696 6.227 13.468 4.03144 16.8363 4.03144L19.2142 4.03433V7.79711H17.6355C16.3246 7.79711 15.8261 8.87467 15.8261 9.87422V12.3153H19.2129L18.4638 15.8889H15.8261V26H21.1014C22.5522 26 23.7391 24.7014 23.7391 23.1111V2.88889C23.7391 1.3 22.5522 0 21.1014 0Z" fill="white"/>
</svg>
