<svg width="31" height="26" viewBox="0 0 31 26" fill="none" xmlns="http://www.w3.org/2000/svg">
<path d="M29.5086 0H1.01317C0.744488 0.00034644 0.486908 0.117953 0.29696 0.327008C0.107012 0.536063 0.000213845 0.819487 4.04184e-06 1.11508V3.35831C4.04184e-06 3.46167 0.101875 3.58028 0.185116 3.62825L15.163 13.0403C15.2013 13.0645 15.2448 13.077 15.289 13.0765C15.3342 13.0767 15.3785 13.0634 15.4174 13.0382L29.9426 3.63741C30.0243 3.58726 30.2407 3.45469 30.322 3.39364C30.4203 3.31994 30.5217 3.25322 30.5217 3.12108V1.11464C30.5214 0.819127 30.4146 0.535815 30.2246 0.326854C30.0347 0.117893 29.7772 0.000346239 29.5086 0ZM30.3953 6.74061C30.3563 6.71615 30.3121 6.70343 30.2672 6.70373C30.2224 6.70404 30.1783 6.71736 30.1396 6.74236L21.9198 12.0631C21.887 12.0841 21.859 12.1129 21.8377 12.1475C21.8165 12.182 21.8026 12.2214 21.7971 12.2626C21.7916 12.3039 21.7946 12.346 21.8058 12.3858C21.8171 12.4256 21.8364 12.4621 21.8623 12.4926L30.0833 22.2422C30.1069 22.2704 30.1355 22.2928 30.1674 22.3081C30.1993 22.3235 30.2337 22.3313 30.2684 22.3312C30.3356 22.3311 30.4 22.3017 30.4474 22.2494C30.4949 22.1972 30.5216 22.1264 30.5217 22.0525V6.98264C30.5219 6.93362 30.5103 6.88542 30.4881 6.84292C30.4659 6.80042 30.4339 6.76512 30.3953 6.74061ZM19.551 13.8497C19.5119 13.803 19.4595 13.7724 19.4025 13.763C19.3454 13.7536 19.2871 13.7661 19.2374 13.7983L15.9427 15.9312C15.7496 16.0539 15.5309 16.1192 15.308 16.1208C15.085 16.1225 14.8655 16.0602 14.6711 15.9403L11.7715 14.1179C11.7247 14.0886 11.6706 14.0764 11.6171 14.0831C11.5635 14.0899 11.5134 14.1152 11.4738 14.1554L0.462983 25.3917C0.434117 25.4213 0.411954 25.458 0.398261 25.4988C0.384567 25.5396 0.379722 25.5833 0.384111 25.6265C0.3885 25.6697 0.402002 25.7112 0.423541 25.7477C0.44508 25.7841 0.47406 25.8145 0.508171 25.8365C0.67941 25.9472 0.844703 26 1.01277 26H29.2168C29.2662 26.0001 29.3145 25.9843 29.3557 25.9544C29.3969 25.9246 29.4293 25.882 29.4487 25.8321C29.4685 25.7825 29.4746 25.7276 29.4663 25.6742C29.458 25.6208 29.4356 25.5712 29.402 25.5316L19.551 13.8497ZM9.05109 12.8262C9.08025 12.7966 9.10266 12.7598 9.11652 12.7188C9.13037 12.6779 9.13528 12.6339 9.13084 12.5905C9.12641 12.5471 9.11275 12.5054 9.09098 12.4688C9.0692 12.4323 9.03992 12.4019 9.0055 12.3801L0.37776 6.95866C0.339256 6.93461 0.295687 6.9221 0.251411 6.92238C0.207134 6.92267 0.163702 6.93574 0.125458 6.96029C0.0872132 6.98484 0.0554972 7.02 0.0334814 7.06226C0.0114656 7.10453 -7.82835e-05 7.15241 4.04184e-06 7.20112V21.4263C-0.000275319 21.4806 0.0139325 21.5339 0.0408687 21.5794C0.067805 21.6249 0.106287 21.6608 0.151552 21.6825C0.196818 21.7042 0.246879 21.7109 0.295539 21.7016C0.3442 21.6923 0.389324 21.6676 0.425326 21.6304L9.05109 12.8262Z" fill="white"/>
</svg>
