<svg width="24" height="26" viewBox="0 0 24 26" fill="none" xmlns="http://www.w3.org/2000/svg">
<path d="M15.8261 13H18.4638C18.4638 11.0845 17.769 9.24755 16.5324 7.89312C15.2957 6.53869 13.6185 5.77778 11.8696 5.77778V8.66667C12.9189 8.66667 13.9253 9.12321 14.6672 9.93587C15.4092 10.7485 15.8261 11.8507 15.8261 13ZM21.1014 13H23.7391C23.7391 5.77778 18.4242 0 11.8696 0V2.88889C16.9603 2.88889 21.1014 7.41 21.1014 13ZM22.4203 18.0556C20.7717 18.0556 19.1891 17.7667 17.712 17.2322C17.2504 17.0733 16.7361 17.1889 16.3668 17.5933L13.4654 20.7711C9.72423 18.6814 6.68218 15.3497 4.7742 11.2522L7.67565 8.07444C8.04493 7.67 8.15044 7.10667 8.00536 6.60111C7.50506 4.93719 7.25127 3.19626 7.25362 1.44444C7.25362 1.06135 7.11467 0.693954 6.86734 0.423068C6.62001 0.152182 6.28456 0 5.93478 0H1.31884C0.969062 0 0.63361 0.152182 0.386279 0.423068C0.138949 0.693954 0 1.06135 0 1.44444C0 7.95698 2.36213 14.2028 6.56675 18.8078C10.7714 23.4129 16.4741 26 22.4203 26C22.7701 26 23.1055 25.8478 23.3529 25.5769C23.6002 25.306 23.7391 24.9386 23.7391 24.5556V19.5C23.7391 19.1169 23.6002 18.7495 23.3529 18.4786C23.1055 18.2077 22.7701 18.0556 22.4203 18.0556Z" fill="white"/>
</svg>
