<svg width="34" height="26" viewBox="0 0 34 26" fill="none" xmlns="http://www.w3.org/2000/svg">
<path d="M17.0657 0H17.2543C18.9967 0.00694012 27.8253 0.0763417 30.2057 0.77498C30.9253 0.9882 31.5811 1.40381 32.1074 1.98027C32.6337 2.55673 33.0122 3.27385 33.2051 4.05997C33.4192 4.93905 33.5697 6.10268 33.6714 7.30332L33.6926 7.54391L33.7392 8.14539L33.7562 8.38598C33.894 10.5004 33.9109 12.4806 33.913 12.9132V13.0868C33.9109 13.5355 33.8918 15.65 33.7392 17.8523L33.7223 18.0952L33.7032 18.3358C33.5972 19.659 33.4404 20.973 33.2051 21.94C33.0128 22.7265 32.6345 23.4439 32.1081 24.0205C31.5817 24.597 30.9256 25.0124 30.2057 25.225C27.7468 25.9468 18.4011 25.9977 17.106 26H16.805C16.15 26 13.441 25.9861 10.6006 25.8797L10.2403 25.8658L10.0558 25.8566L9.69338 25.8404L9.33091 25.8242C6.97804 25.7108 4.73752 25.5281 3.70523 25.2227C2.98557 25.0103 2.32969 24.5953 1.80328 24.0192C1.27687 23.443 0.898427 22.726 0.705859 21.94C0.470573 20.9754 0.313715 19.659 0.20773 18.3358L0.190773 18.0929L0.173815 17.8523C0.069203 16.2848 0.0112341 14.7139 0 13.1423L0 12.8577C0.0042394 12.3604 0.021197 10.6415 0.135661 8.74455L0.150499 8.50627L0.156858 8.38598L0.173815 8.14539L0.220449 7.54391L0.241646 7.30332C0.343391 6.10268 0.49389 4.93674 0.707979 4.05997C0.900222 3.27353 1.27852 2.55607 1.80495 1.97951C2.33138 1.40295 2.98744 0.987561 3.70735 0.77498C4.73964 0.474242 6.98016 0.289171 9.33303 0.173503L9.69338 0.157309L10.058 0.143429L10.2403 0.136489L10.6027 0.120296C12.6201 0.0494477 14.6382 0.0101161 16.6566 0.00231348H17.0657V0ZM13.5661 7.42593V18.5718L22.3776 13.0012L13.5661 7.42593Z" fill="gray"/>
</svg>
